<?xml version="1.0" standalone="no"?>
<!DOCTYPE svg PUBLIC "-//W3C//DTD SVG 20010904//EN"
 "http://www.w3.org/TR/2001/REC-SVG-20010904/DTD/svg10.dtd">
<svg version="1.0" xmlns="http://www.w3.org/2000/svg"
 width="260.000000pt" height="260.000000pt" viewBox="0 0 260.000000 260.000000"
 preserveAspectRatio="xMidYMid meet">
<metadata>
Created by potrace 1.14, written by Peter Selinger 2001-2017
</metadata>
<g transform="translate(0.000000,260.000000) scale(0.100000,-0.100000)"
fill="#000000" stroke="none">
<path d="M0 1300 l0 -1300 1300 0 1300 0 0 1300 0 1300 -1300 0 -1300 0 0
-1300z m320 465 l0 -235 145 0 145 0 0 -50 0 -50 -200 0 -200 0 0 285 0 285
55 0 55 0 0 -235z m470 -50 l0 -285 -60 0 -60 0 0 285 0 285 60 0 60 0 0 -285z
m540 235 l0 -50 -90 0 -90 0 0 -235 0 -235 -60 0 -60 0 0 235 0 235 -90 0 -90
0 0 50 0 50 240 0 240 0 0 -50z m500 0 l0 -50 -90 0 -90 0 0 -235 0 -235 -60
0 -60 0 0 235 0 235 -90 0 -90 0 0 50 0 50 240 0 240 0 0 -50z m200 -80 c35
-71 67 -130 70 -130 3 0 36 59 73 130 l69 130 59 0 c32 0 59 -3 59 -6 0 -3
-45 -86 -100 -184 l-100 -179 0 -100 0 -101 -60 0 -60 0 0 103 0 102 -100 180
c-55 98 -100 180 -100 182 0 2 28 3 63 3 l63 0 64 -130z m-1533 -801 c46 -17
64 -38 50 -59 -10 -18 -12 -17 -40 6 -38 32 -135 36 -190 7 -34 -17 -60 -73
-51 -108 7 -30 33 -44 133 -74 114 -35 147 -89 105 -177 -44 -93 -226 -121
-321 -48 -36 27 -38 31 -23 54 8 12 14 10 37 -12 89 -85 273 -48 276 56 1 48
-22 69 -101 91 -131 36 -159 62 -149 134 11 85 86 141 189 141 31 0 69 -5 85
-11z m501 -6 c-3 -15 -17 -18 -90 -21 l-87 -3 -9 -47 c-89 -425 -86 -412 -109
-412 -14 0 -21 5 -18 13 2 6 23 100 45 207 23 107 44 205 47 218 5 22 3 22
-81 22 -65 0 -86 3 -86 13 0 8 3 17 7 20 3 4 91 7 195 7 175 0 189 -1 186 -17z
m321 4 c57 -28 81 -129 47 -194 -17 -34 -75 -88 -105 -98 -19 -6 -18 -9 15
-93 19 -48 34 -91 34 -95 0 -5 -9 -7 -21 -5 -16 2 -29 23 -56 91 l-35 87 -74
0 -73 0 -10 -37 c-5 -21 -12 -54 -16 -73 -11 -62 -16 -70 -37 -70 -14 0 -19 5
-16 18 3 9 27 122 53 250 l49 232 111 0 c67 0 119 -5 134 -13z m231 4 c0 -5
-22 -116 -50 -245 -27 -130 -50 -238 -50 -241 0 -3 -9 -5 -20 -5 -11 0 -20 4
-20 9 0 5 23 116 50 245 28 130 50 238 50 241 0 3 9 5 20 5 11 0 20 -4 20 -9z
m374 -10 c39 -26 55 -57 56 -109 0 -68 -43 -137 -105 -170 -19 -9 -67 -17
-127 -20 l-98 -5 -9 -36 c-5 -20 -12 -52 -16 -71 -11 -62 -16 -70 -37 -70 -14
0 -19 5 -16 18 3 9 27 122 53 250 l49 232 111 0 c92 0 115 -3 139 -19z m399 6
c45 -19 63 -43 47 -62 -11 -13 -16 -12 -42 10 -17 14 -43 25 -61 26 -126 4
-176 -27 -177 -108 0 -50 10 -57 129 -92 92 -28 121 -55 121 -113 0 -94 -74
-152 -195 -151 -100 0 -196 51 -165 88 11 13 16 12 41 -9 40 -34 94 -49 150
-43 64 8 104 30 119 66 27 65 -5 101 -117 132 -109 31 -142 64 -129 134 9 45
65 108 108 122 48 16 134 15 171 0z"/>
<path d="M1105 1028 c-6 -21 -45 -208 -45 -218 0 -18 161 -12 200 8 77 38 107
146 55 197 -22 23 -32 25 -115 25 -64 0 -92 -4 -95 -12z"/>
<path d="M1705 1028 c-6 -21 -45 -208 -45 -218 0 -15 156 -12 194 4 64 27 102
114 76 176 -7 17 -21 35 -31 40 -27 15 -189 13 -194 -2z"/>
</g>
</svg>
